<?xml version="1.0" encoding="UTF-8" standalone="no"?>
<!DOCTYPE svg PUBLIC "-//W3C//DTD SVG 1.1//EN" "http://www.w3.org/Graphics/SVG/1.1/DTD/svg11.dtd">
<svg width="100%" height="100%" viewBox="0 0 2587 802" version="1.1" xmlns="http://www.w3.org/2000/svg" xmlns:xlink="http://www.w3.org/1999/xlink" xml:space="preserve" xmlns:serif="http://www.serif.com/" style="fill-rule:evenodd;clip-rule:evenodd;stroke-linejoin:round;stroke-miterlimit:2;">
    <g transform="matrix(1,0,0,1,-492,-842)">
        <g>
            <g transform="matrix(4.16667,0,0,4.16667,302.396,250.372)">
                <path d="M393.695,281.854L357.757,234.937C343.354,217.804 325.427,201.203 325.427,178.524C325.427,178.524 325.427,142 357.681,142C396.813,142 395.591,199.438 372.331,218.618C368.426,213.836 364.149,209.055 359.557,204.215C370.642,192.437 371.898,177.727 368.155,168.596C365.872,163.026 361.797,159.698 357.256,159.698C352.715,159.698 348.641,163.026 346.358,168.596C342.454,178.134 343.545,190.865 356.442,205.801C360.283,210.249 364.719,215.353 369.162,221.077C393.695,254.16 393.695,281.854 393.695,281.854Z" style="fill:rgb(64,37,105);fill-rule:nonzero;"/>
            </g>
            <g transform="matrix(4.16667,0,0,4.16667,302.396,250.372)">
                <path d="M298.232,317.979L415.551,317.979C410.169,310.409 359.945,242.793 355.134,237.045C347.746,228.217 328.919,209.894 325.181,193.399C315.64,219.082 349.795,259.707 357.137,268.024L357.256,268.174C357.808,268.797 358.411,269.635 358.411,269.635L380.862,300.083C381.048,300.34 381.074,300.672 380.929,300.946C380.785,301.229 380.497,301.402 380.174,301.402L333.457,301.402C333.159,301.386 332.896,301.229 332.752,300.979L332.752,300.971L332.744,300.971L332.744,300.954L332.735,300.954L332.735,300.938L332.727,300.938L332.727,300.921L332.718,300.921L332.718,300.904L332.709,300.904L332.709,300.888C332.667,300.788 332.642,300.681 332.642,300.572C332.642,300.506 332.65,300.432 332.667,300.365C332.667,300.356 332.667,300.356 332.676,300.349L332.676,300.34C332.701,300.249 332.744,300.166 332.803,300.091L354.557,270.199C352.129,267.477 347.054,261.576 341.528,253.905L298.232,317.979Z" style="fill:rgb(64,37,105);fill-rule:nonzero;"/>
            </g>
            <g transform="matrix(4.16667,0,0,4.16667,396.237,310.372)">
                <path d="M31.45,215.753C29.325,216.858 27.625,218.303 26.35,220.173C25.075,222.128 24.31,224.253 24.225,226.718C24.14,228.673 24.48,230.628 25.33,232.498C26.095,234.453 27.54,236.068 29.495,237.513L44.88,248.733C46.325,249.838 47.43,250.943 48.11,252.048C48.705,253.153 49.045,254.428 49.045,255.873C49.045,258.423 48.11,260.463 46.24,262.078C44.285,263.693 41.65,264.543 38.165,264.628C35.53,264.713 33.235,264.203 31.28,263.098C29.325,262.078 27.795,260.633 26.775,258.678C25.755,256.723 25.33,254.513 25.585,251.963L24.65,251.963C24.225,253.068 23.8,254.258 23.545,255.703C23.29,257.148 23.12,258.593 23.12,259.953C23.12,261.313 23.205,262.418 23.46,263.353C24.48,264.203 25.755,264.968 27.37,265.563C28.985,266.158 30.77,266.668 32.725,267.008C34.68,267.348 36.55,267.518 38.505,267.518C41.65,267.518 44.54,266.923 47.005,265.648C49.47,264.458 51.51,262.758 52.955,260.548C54.4,258.423 55.165,255.958 55.165,253.238C55.25,251.113 54.825,249.158 53.975,247.288C53.125,245.503 51.85,244.058 50.235,242.953L34.34,231.308C33.405,230.628 32.64,229.948 32.045,229.183C31.45,228.503 30.94,227.738 30.685,226.973C30.43,226.208 30.26,225.443 30.26,224.593C30.26,222.468 31.195,220.598 33.15,219.153C35.02,217.708 37.4,217.028 40.205,217.028C43.52,217.028 46.07,217.708 47.77,219.068C49.385,220.513 50.235,222.383 50.235,224.848L51.17,224.848L51.425,216.433L51.425,214.903L48.025,214.903L46.58,214.648C45.475,214.563 44.2,214.393 42.925,214.308C41.565,214.223 40.12,214.138 38.675,214.138C36.04,214.138 33.575,214.648 31.45,215.753Z" style="fill:rgb(64,37,105);fill-rule:nonzero;"/>
            </g>
            <g transform="matrix(4.16667,0,0,4.16667,388.237,310.372)">
                <path d="M66.809,260.888C66.724,262.163 66.299,263.183 65.449,264.118C64.514,265.053 63.409,265.478 62.049,265.478L60.859,265.478L60.859,266.328L97.239,266.328L101.404,252.983L100.554,252.983C99.789,255.023 98.854,256.808 97.664,258.423C96.474,260.038 95.029,261.228 93.244,262.078C91.459,263.013 89.164,263.438 86.529,263.438L74.544,263.438L74.544,242.358L87.379,242.358C88.824,242.358 90.014,242.783 90.779,243.633C91.544,244.568 91.884,245.673 91.884,246.948L91.884,247.883L92.819,247.883L92.819,233.943L91.884,233.943L91.884,234.878C91.884,236.153 91.544,237.173 90.779,238.108C90.014,239.043 88.824,239.468 87.379,239.468L74.544,239.468L74.544,218.218L90.354,218.218C92.054,218.218 93.414,218.728 94.349,219.748C95.284,220.853 95.794,222.213 95.794,223.828L95.794,224.933L96.644,224.933L96.644,213.968C95.964,214.223 94.689,214.563 92.734,214.818C90.779,215.158 88.994,215.328 87.209,215.328L60.859,215.328L60.859,216.178L62.049,216.178C63.409,216.178 64.514,216.603 65.449,217.453C66.299,218.303 66.724,219.408 66.809,220.683L66.809,260.888Z" style="fill:rgb(64,37,105);fill-rule:nonzero;"/>
            </g>
            <g transform="matrix(4.16667,0,0,4.16667,387.237,310.372)">
                <path d="M156.483,244.908C156.058,249.583 154.868,253.323 152.913,256.213C150.958,259.103 148.408,261.228 145.263,262.588C142.118,263.948 138.378,264.628 134.213,264.628C129.963,264.543 126.308,263.523 123.248,261.568C120.188,259.613 117.808,256.893 116.193,253.323C114.493,249.753 113.643,245.588 113.643,240.743C113.643,235.898 114.493,231.648 116.193,228.078C117.808,224.593 120.188,221.788 123.333,219.833C126.393,217.878 130.133,216.943 134.468,216.943C139.313,216.943 143.563,218.048 147.133,220.258C150.618,222.468 153.083,226.208 154.358,231.393L155.123,231.393L153.848,218.898C151.383,217.453 148.408,216.263 144.923,215.413C141.438,214.563 137.868,214.138 134.213,214.138C128.263,214.138 123.163,215.243 118.828,217.368C114.493,219.493 111.093,222.553 108.798,226.548C106.503,230.543 105.313,235.303 105.313,240.828C105.313,246.353 106.503,251.113 108.798,255.023C111.093,259.018 114.493,262.078 118.828,264.203C123.163,266.328 128.263,267.433 134.213,267.518C137.698,267.518 140.843,267.093 143.818,266.158C146.708,265.308 149.258,264.118 151.553,262.503C153.763,260.888 155.548,259.103 156.908,256.978L157.163,244.908L156.483,244.908Z" style="fill:rgb(64,37,105);fill-rule:nonzero;"/>
            </g>
            <g transform="matrix(4.16667,0,0,4.16667,377.237,310.372)">
                <path d="M185.468,215.328L162.518,215.328L162.518,216.178L163.708,216.178C164.983,216.178 166.088,216.603 167.023,217.453C167.873,218.218 168.298,219.153 168.383,220.343L168.383,261.228C168.298,262.418 167.873,263.268 167.023,264.118C166.088,265.053 164.983,265.478 163.708,265.478L162.518,265.478L162.518,266.328L181.983,266.328L181.898,265.478L180.878,265.478C179.603,265.478 178.498,265.053 177.563,264.118C176.628,263.268 176.118,262.163 176.118,260.888L176.118,218.218C176.288,218.303 177.223,218.303 178.668,218.218C180.283,218.218 182.068,218.218 184.193,218.303C185.638,218.388 186.913,218.558 188.188,218.983C189.378,219.408 190.483,220.088 191.503,220.853C192.438,221.703 193.203,222.723 193.798,223.998C194.393,225.273 194.733,226.718 194.818,228.503C194.903,229.438 194.818,230.203 194.733,230.968C194.648,231.733 194.478,232.413 194.308,232.923C193.628,235.303 192.693,237.003 191.418,238.108C190.143,239.213 188.868,239.893 187.423,240.148C185.978,240.403 184.448,240.573 183.003,240.658C181.898,240.743 180.538,240.743 179.093,240.658L179.093,241.508C180.453,241.508 181.813,242.018 183.088,243.038C184.363,244.143 185.468,245.418 186.488,247.033C186.658,247.373 187.083,248.053 187.763,249.158C188.443,250.263 189.208,251.368 190.058,252.643C190.823,253.918 191.588,255.193 192.353,256.298C193.118,257.403 193.628,258.168 193.968,258.593C194.988,260.038 196.178,261.313 197.538,262.503C198.898,263.693 200.598,264.628 202.638,265.308C204.678,265.988 207.228,266.328 210.373,266.328L214.453,266.328L214.453,265.478C213.008,265.478 211.818,265.223 210.713,264.713C209.608,264.288 208.673,263.608 207.738,262.673C206.803,261.738 205.698,260.633 204.508,259.273C203.403,257.913 202.383,256.553 201.363,255.108C200.258,253.748 199.408,252.558 198.728,251.538C198.048,250.603 197.623,250.008 197.538,249.923C196.688,248.648 195.583,247.288 194.223,245.843C192.863,244.398 191.588,243.548 190.398,243.123C193.033,242.783 195.243,241.933 197.198,240.573C199.153,239.213 200.598,237.513 201.618,235.473C202.638,233.518 203.148,231.393 203.148,229.183C203.148,226.888 202.723,224.848 201.873,223.063C200.938,221.363 199.748,219.918 198.133,218.728C196.518,217.623 194.648,216.773 192.523,216.178C190.398,215.583 188.018,215.328 185.468,215.328Z" style="fill:rgb(64,37,105);fill-rule:nonzero;"/>
            </g>
            <g transform="matrix(4.16667,0,0,4.16667,377.237,310.372)">
                <path d="M219.893,260.888C219.808,262.163 219.383,263.183 218.533,264.118C217.598,265.053 216.493,265.478 215.133,265.478L213.943,265.478L213.943,266.328L250.323,266.328L254.488,252.983L253.638,252.983C252.873,255.023 251.938,256.808 250.748,258.423C249.558,260.038 248.113,261.228 246.328,262.078C244.543,263.013 242.248,263.438 239.613,263.438L227.628,263.438L227.628,242.358L240.463,242.358C241.908,242.358 243.098,242.783 243.863,243.633C244.628,244.568 244.968,245.673 244.968,246.948L244.968,247.883L245.903,247.883L245.903,233.943L244.968,233.943L244.968,234.878C244.968,236.153 244.628,237.173 243.863,238.108C243.098,239.043 241.908,239.468 240.463,239.468L227.628,239.468L227.628,218.218L243.438,218.218C245.138,218.218 246.498,218.728 247.433,219.748C248.368,220.853 248.878,222.213 248.878,223.828L248.878,224.933L249.728,224.933L249.728,213.968C249.048,214.223 247.773,214.563 245.818,214.818C243.863,215.158 242.078,215.328 240.293,215.328L213.943,215.328L213.943,216.178L215.133,216.178C216.493,216.178 217.598,216.603 218.533,217.453C219.383,218.303 219.808,219.408 219.893,220.683L219.893,260.888Z" style="fill:rgb(64,37,105);fill-rule:nonzero;"/>
            </g>
            <g transform="matrix(4.16667,0,0,4.16667,377.229,310.375)">
                <path d="M275.311,260.888C275.226,262.163 274.801,263.183 273.866,264.118C272.931,265.053 271.741,265.478 270.466,265.478L269.446,265.478L269.446,266.328L288.911,266.328L288.911,265.478L287.976,265.478C286.701,265.478 285.511,265.053 284.576,264.118C283.641,263.183 283.131,262.163 283.131,260.888L283.131,218.048L296.646,218.048C298.346,218.133 299.706,218.643 300.641,219.663C301.576,220.683 302.086,222.043 302.086,223.658L302.086,224.763L303.021,224.763L303.021,213.883C302.511,214.053 301.746,214.223 300.726,214.478C299.621,214.733 298.516,214.903 297.241,214.988C295.966,215.158 294.776,215.243 293.671,215.243L264.771,215.243C263.666,215.243 262.561,215.158 261.286,214.988C260.011,214.903 258.821,214.733 257.801,214.478C256.696,214.223 255.931,214.053 255.421,213.883L255.421,224.763L256.356,224.763L256.356,223.658C256.356,222.043 256.866,220.683 257.801,219.663C258.736,218.643 260.096,218.133 261.796,218.048L275.311,218.048L275.311,260.888Z" style="fill:url(#_Linear1);fill-rule:nonzero;"/>
            </g>
            <g transform="matrix(4.16667,0,0,4.16667,302.396,310.372)">
                <path d="M415.59,260.392C415.59,261.667 415.165,262.687 414.23,263.622C413.295,264.557 412.105,265.067 410.83,265.067L409.725,265.067L409.725,265.917L438.2,265.917C443.98,265.917 448.995,264.897 453.16,262.772C457.325,260.732 460.47,257.842 462.765,254.017C464.975,250.192 466.08,245.687 466.08,240.417C466.08,235.147 464.975,230.557 462.765,226.732C460.47,222.907 457.325,220.017 453.16,217.977C448.995,215.937 443.98,214.917 438.2,214.917L409.725,214.917L409.725,215.767L410.745,215.767C412.02,215.767 413.21,216.192 414.145,217.042C415.08,217.977 415.505,219.082 415.59,220.357L415.59,260.392ZM423.41,217.722L437.86,217.722C444.065,217.722 448.91,219.762 452.395,223.757C455.88,227.837 457.665,233.362 457.665,240.417C457.665,247.472 455.88,252.997 452.395,256.992C448.91,261.072 444.065,263.112 437.86,263.112L423.41,263.112L423.41,217.722Z" style="fill:rgb(64,37,105);fill-rule:nonzero;"/>
            </g>
            <g transform="matrix(4.16667,0,0,4.16667,302.396,310.372)">
                <path d="M478.745,260.478C478.66,261.753 478.235,262.773 477.385,263.708C476.45,264.643 475.345,265.068 473.985,265.068L472.795,265.068L472.795,265.918L509.175,265.918L513.34,252.573L512.49,252.573C511.725,254.613 510.79,256.398 509.6,258.013C508.41,259.628 506.965,260.818 505.18,261.668C503.395,262.603 501.1,263.028 498.465,263.028L486.48,263.028L486.48,241.948L499.315,241.948C500.76,241.948 501.95,242.373 502.715,243.223C503.48,244.158 503.82,245.263 503.82,246.538L503.82,247.473L504.755,247.473L504.755,233.533L503.82,233.533L503.82,234.468C503.82,235.743 503.48,236.763 502.715,237.698C501.95,238.633 500.76,239.058 499.315,239.058L486.48,239.058L486.48,217.808L502.29,217.808C503.99,217.808 505.35,218.318 506.285,219.338C507.22,220.443 507.73,221.803 507.73,223.418L507.73,224.523L508.58,224.523L508.58,213.558C507.9,213.813 506.625,214.153 504.67,214.408C502.715,214.748 500.93,214.918 499.145,214.918L472.795,214.918L472.795,215.768L473.985,215.768C475.345,215.768 476.45,216.193 477.385,217.043C478.235,217.893 478.66,218.998 478.745,220.273L478.745,260.478Z" style="fill:rgb(64,37,105);fill-rule:nonzero;"/>
            </g>
            <g transform="matrix(4.16667,0,0,4.16667,302.396,310.372)">
                <path d="M570.969,244.498C570.544,249.173 569.354,252.913 567.399,255.803C565.444,258.693 562.894,260.818 559.749,262.178C556.604,263.538 552.864,264.218 548.699,264.218C544.449,264.133 540.794,263.113 537.734,261.158C534.674,259.203 532.294,256.483 530.679,252.913C528.979,249.343 528.129,245.178 528.129,240.333C528.129,235.488 528.979,231.238 530.679,227.668C532.294,224.183 534.674,221.378 537.819,219.423C540.879,217.468 544.619,216.533 548.954,216.533C553.799,216.533 558.049,217.638 561.619,219.848C565.104,222.058 567.569,225.798 568.844,230.983L569.609,230.983L568.334,218.488C565.869,217.043 562.894,215.853 559.409,215.003C555.924,214.153 552.354,213.728 548.699,213.728C542.749,213.728 537.649,214.833 533.314,216.958C528.979,219.083 525.579,222.143 523.284,226.138C520.989,230.133 519.799,234.893 519.799,240.418C519.799,245.943 520.989,250.703 523.284,254.613C525.579,258.608 528.979,261.668 533.314,263.793C537.649,265.918 542.749,267.023 548.699,267.108C552.184,267.108 555.329,266.683 558.304,265.748C561.194,264.898 563.744,263.708 566.039,262.093C568.249,260.478 570.034,258.693 571.394,256.568L571.649,244.498L570.969,244.498Z" style="fill:rgb(64,37,105);fill-rule:nonzero;"/>
            </g>
            <g transform="matrix(4.16667,0,0,4.16667,302.396,310.372)">
                <path d="M628.599,214.918L611.259,214.918L611.259,215.768L612.024,215.768C613.044,215.768 613.724,216.108 614.149,216.788C614.574,217.553 614.404,218.318 613.809,219.083L613.894,219.083L595.874,241.098C597.404,242.883 598.764,244.498 600.039,245.943C601.229,247.388 602.504,248.918 603.949,250.533C605.394,252.148 606.669,253.678 607.944,255.123C609.219,256.568 610.239,257.843 611.089,258.778C611.854,259.798 612.364,260.393 612.449,260.478C613.554,261.838 614.744,262.858 616.104,263.623C617.464,264.388 618.824,264.898 620.184,265.153C621.459,265.493 622.649,265.663 623.754,265.748C624.859,265.833 625.709,265.918 626.389,265.918L630.639,265.918L630.639,265.068C628.854,264.983 627.494,264.643 626.389,263.963C625.284,263.368 624.179,262.433 623.159,261.158L603.184,237.528L619.844,219.168C620.779,218.063 622.054,217.213 623.499,216.618C624.944,216.023 626.559,215.768 628.259,215.768L628.599,215.768L628.599,214.918ZM593.069,220.358C593.069,219.083 593.579,217.978 594.514,217.043C595.449,216.193 596.554,215.768 597.914,215.768L598.849,215.768L598.849,214.918L579.384,214.918L579.384,215.768L580.404,215.768C581.764,215.768 582.954,216.193 583.889,217.043C584.824,217.978 585.249,219.083 585.334,220.358L585.334,260.478C585.249,261.753 584.824,262.773 583.889,263.708C582.954,264.643 581.764,265.068 580.404,265.068L579.469,265.068L579.469,265.918L598.849,265.918L598.849,265.068L597.914,265.068C596.554,265.068 595.449,264.643 594.514,263.708C593.579,262.773 593.069,261.753 593.069,260.478L593.069,220.358Z" style="fill:rgb(64,37,105);fill-rule:nonzero;"/>
            </g>
            <g transform="matrix(4.16667,0,0,4.16667,302.396,310.372)">
                <path d="M642.454,215.343C640.329,216.448 638.629,217.893 637.354,219.763C636.079,221.718 635.314,223.843 635.229,226.308C635.144,228.263 635.484,230.218 636.334,232.088C637.099,234.043 638.544,235.658 640.499,237.103L655.884,248.323C657.329,249.428 658.434,250.533 659.114,251.638C659.709,252.743 660.049,254.018 660.049,255.463C660.049,258.013 659.114,260.053 657.244,261.668C655.289,263.283 652.654,264.133 649.169,264.218C646.534,264.303 644.239,263.793 642.284,262.688C640.329,261.668 638.799,260.223 637.779,258.268C636.759,256.313 636.334,254.103 636.589,251.553L635.654,251.553C635.229,252.658 634.804,253.848 634.549,255.293C634.294,256.738 634.124,258.183 634.124,259.543C634.124,260.903 634.209,262.008 634.464,262.943C635.484,263.793 636.759,264.558 638.374,265.153C639.989,265.748 641.774,266.258 643.729,266.598C645.684,266.938 647.554,267.108 649.509,267.108C652.654,267.108 655.544,266.513 658.009,265.238C660.474,264.048 662.514,262.348 663.959,260.138C665.404,258.013 666.169,255.548 666.169,252.828C666.254,250.703 665.829,248.748 664.979,246.878C664.129,245.093 662.854,243.648 661.239,242.543L645.344,230.898C644.409,230.218 643.644,229.538 643.049,228.773C642.454,228.093 641.944,227.328 641.689,226.563C641.434,225.798 641.264,225.033 641.264,224.183C641.264,222.058 642.199,220.188 644.154,218.743C646.024,217.298 648.404,216.618 651.209,216.618C654.524,216.618 657.074,217.298 658.774,218.658C660.389,220.103 661.239,221.973 661.239,224.438L662.174,224.438L662.429,216.023L662.429,214.493L659.029,214.493L657.584,214.238C656.479,214.153 655.204,213.983 653.929,213.898C652.569,213.813 651.124,213.728 649.679,213.728C647.044,213.728 644.579,214.238 642.454,215.343Z" style="fill:rgb(64,37,105);fill-rule:nonzero;"/>
            </g>
            <g transform="matrix(60.5412,0,0,60.5412,1547.5,1642.39)">
                <path d="M0.273,-0.306L0.222,-0.306L0.222,-0.076C0.222,-0.046 0.215,-0.024 0.202,-0.009C0.189,0.005 0.171,0.012 0.15,0.012C0.127,0.012 0.109,0.005 0.096,-0.01C0.083,-0.025 0.077,-0.047 0.077,-0.076L0.077,-0.627C0.077,-0.658 0.084,-0.681 0.098,-0.695C0.112,-0.709 0.135,-0.716 0.166,-0.716L0.402,-0.716C0.434,-0.716 0.462,-0.714 0.485,-0.712C0.508,-0.709 0.529,-0.703 0.548,-0.695C0.57,-0.685 0.59,-0.672 0.607,-0.654C0.625,-0.637 0.638,-0.616 0.647,-0.593C0.656,-0.57 0.66,-0.545 0.66,-0.519C0.66,-0.466 0.645,-0.423 0.615,-0.391C0.585,-0.359 0.539,-0.337 0.478,-0.323C0.504,-0.31 0.528,-0.289 0.552,-0.263C0.575,-0.236 0.596,-0.208 0.615,-0.177C0.633,-0.147 0.647,-0.12 0.657,-0.096C0.668,-0.072 0.673,-0.055 0.673,-0.046C0.673,-0.036 0.67,-0.027 0.664,-0.018C0.658,-0.009 0.65,-0.001 0.639,0.004C0.629,0.01 0.617,0.012 0.603,0.012C0.587,0.012 0.573,0.008 0.562,0.001C0.551,-0.007 0.541,-0.017 0.533,-0.028C0.525,-0.04 0.515,-0.057 0.501,-0.08L0.443,-0.177C0.422,-0.212 0.403,-0.239 0.387,-0.258C0.371,-0.276 0.354,-0.289 0.337,-0.296C0.32,-0.303 0.299,-0.306 0.273,-0.306ZM0.356,-0.607L0.222,-0.607L0.222,-0.41L0.352,-0.41C0.387,-0.41 0.416,-0.413 0.44,-0.419C0.464,-0.425 0.482,-0.435 0.494,-0.45C0.507,-0.464 0.513,-0.484 0.513,-0.51C0.513,-0.53 0.508,-0.547 0.498,-0.562C0.488,-0.577 0.474,-0.589 0.456,-0.596C0.439,-0.603 0.406,-0.607 0.356,-0.607Z" style="fill:rgb(64,37,105);fill-rule:nonzero;"/>
            </g>
            <g transform="matrix(60.5412,0,0,60.5412,1591.04,1642.39)">
                <path d="M0.55,-0.604L0.223,-0.604L0.223,-0.428L0.524,-0.428C0.546,-0.428 0.563,-0.423 0.573,-0.413C0.584,-0.403 0.59,-0.39 0.59,-0.374C0.59,-0.358 0.584,-0.344 0.574,-0.334C0.563,-0.324 0.546,-0.319 0.524,-0.319L0.223,-0.319L0.223,-0.115L0.561,-0.115C0.584,-0.115 0.601,-0.11 0.613,-0.099C0.624,-0.089 0.63,-0.075 0.63,-0.057C0.63,-0.04 0.624,-0.026 0.613,-0.016C0.601,-0.005 0.584,-0 0.561,-0L0.167,-0C0.135,-0 0.113,-0.007 0.099,-0.021C0.085,-0.035 0.078,-0.058 0.078,-0.089L0.078,-0.627C0.078,-0.648 0.081,-0.665 0.087,-0.678C0.094,-0.691 0.103,-0.701 0.116,-0.707C0.13,-0.713 0.146,-0.716 0.167,-0.716L0.55,-0.716C0.573,-0.716 0.59,-0.711 0.601,-0.7C0.613,-0.69 0.618,-0.677 0.618,-0.66C0.618,-0.643 0.613,-0.63 0.601,-0.619C0.59,-0.609 0.573,-0.604 0.55,-0.604Z" style="fill:rgb(64,37,105);fill-rule:nonzero;"/>
            </g>
            <g transform="matrix(60.5412,0,0,60.5412,1631.42,1642.39)">
                <path d="M0.536,-0.081L0.502,-0.171L0.211,-0.171L0.177,-0.079C0.163,-0.043 0.152,-0.019 0.143,-0.007C0.133,0.006 0.118,0.012 0.096,0.012C0.078,0.012 0.062,0.006 0.048,-0.008C0.034,-0.021 0.027,-0.036 0.027,-0.053C0.027,-0.063 0.028,-0.073 0.032,-0.083C0.035,-0.094 0.04,-0.108 0.048,-0.127L0.231,-0.592C0.236,-0.605 0.242,-0.621 0.25,-0.64C0.257,-0.659 0.265,-0.674 0.273,-0.687C0.281,-0.699 0.292,-0.709 0.306,-0.717C0.319,-0.724 0.336,-0.728 0.356,-0.728C0.376,-0.728 0.393,-0.724 0.406,-0.717C0.42,-0.709 0.431,-0.699 0.439,-0.687C0.448,-0.675 0.455,-0.662 0.46,-0.648C0.466,-0.634 0.473,-0.616 0.482,-0.593L0.669,-0.131C0.684,-0.096 0.691,-0.07 0.691,-0.054C0.691,-0.038 0.684,-0.022 0.67,-0.009C0.656,0.005 0.64,0.012 0.62,0.012C0.609,0.012 0.599,0.01 0.591,0.006C0.583,0.002 0.576,-0.003 0.57,-0.01C0.565,-0.017 0.559,-0.028 0.552,-0.043C0.546,-0.057 0.541,-0.07 0.536,-0.081ZM0.249,-0.28L0.463,-0.28L0.355,-0.575L0.249,-0.28Z" style="fill:rgb(64,37,105);fill-rule:nonzero;"/>
            </g>
            <g transform="matrix(60.5412,0,0,60.5412,1674.97,1642.39)">
                <path d="M0.168,-0.716L0.357,-0.716C0.406,-0.716 0.448,-0.711 0.483,-0.702C0.519,-0.693 0.55,-0.676 0.579,-0.651C0.654,-0.587 0.691,-0.49 0.691,-0.36C0.691,-0.317 0.687,-0.278 0.68,-0.242C0.672,-0.207 0.661,-0.175 0.645,-0.146C0.629,-0.118 0.609,-0.092 0.585,-0.07C0.566,-0.053 0.545,-0.039 0.522,-0.028C0.499,-0.018 0.475,-0.011 0.448,-0.006C0.422,-0.002 0.393,-0 0.36,-0L0.171,-0C0.145,-0 0.125,-0.004 0.111,-0.012C0.098,-0.02 0.089,-0.031 0.085,-0.046C0.081,-0.06 0.079,-0.079 0.079,-0.102L0.079,-0.627C0.079,-0.658 0.086,-0.681 0.1,-0.695C0.114,-0.709 0.137,-0.716 0.168,-0.716ZM0.224,-0.601L0.224,-0.115L0.334,-0.115C0.358,-0.115 0.377,-0.116 0.391,-0.117C0.404,-0.118 0.418,-0.122 0.433,-0.127C0.448,-0.132 0.46,-0.139 0.471,-0.149C0.52,-0.19 0.544,-0.261 0.544,-0.361C0.544,-0.431 0.533,-0.484 0.512,-0.52C0.491,-0.555 0.464,-0.577 0.433,-0.587C0.402,-0.596 0.364,-0.601 0.32,-0.601L0.224,-0.601Z" style="fill:rgb(64,37,105);fill-rule:nonzero;"/>
            </g>
            <g transform="matrix(60.5412,0,0,60.5412,1734.92,1642.39)">
                <path d="M0.543,-0.596L0.385,-0.596L0.385,-0.076C0.385,-0.046 0.378,-0.024 0.365,-0.01C0.351,0.005 0.334,0.012 0.313,0.012C0.292,0.012 0.274,0.005 0.26,-0.01C0.247,-0.024 0.24,-0.047 0.24,-0.076L0.24,-0.596L0.082,-0.596C0.057,-0.596 0.039,-0.602 0.027,-0.613C0.015,-0.623 0.009,-0.638 0.009,-0.656C0.009,-0.674 0.015,-0.689 0.028,-0.7C0.04,-0.71 0.058,-0.716 0.082,-0.716L0.543,-0.716C0.568,-0.716 0.587,-0.71 0.599,-0.699C0.611,-0.688 0.617,-0.674 0.617,-0.656C0.617,-0.638 0.611,-0.623 0.599,-0.613C0.586,-0.602 0.568,-0.596 0.543,-0.596Z" style="fill:rgb(64,37,105);fill-rule:nonzero;"/>
            </g>
            <g transform="matrix(60.5412,0,0,60.5412,1772.75,1642.39)">
                <path d="M0.224,-0.64L0.224,-0.435L0.537,-0.435L0.537,-0.64C0.537,-0.669 0.544,-0.691 0.557,-0.706C0.57,-0.721 0.587,-0.728 0.609,-0.728C0.631,-0.728 0.648,-0.721 0.662,-0.706C0.675,-0.692 0.682,-0.67 0.682,-0.64L0.682,-0.076C0.682,-0.047 0.675,-0.024 0.662,-0.01C0.648,0.005 0.63,0.012 0.609,0.012C0.587,0.012 0.57,0.005 0.557,-0.01C0.544,-0.025 0.537,-0.047 0.537,-0.076L0.537,-0.317L0.224,-0.317L0.224,-0.076C0.224,-0.047 0.217,-0.024 0.204,-0.01C0.19,0.005 0.172,0.012 0.151,0.012C0.129,0.012 0.112,0.005 0.099,-0.01C0.086,-0.025 0.079,-0.047 0.079,-0.076L0.079,-0.64C0.079,-0.669 0.086,-0.691 0.098,-0.706C0.111,-0.721 0.129,-0.728 0.151,-0.728C0.173,-0.728 0.19,-0.721 0.204,-0.706C0.217,-0.692 0.224,-0.67 0.224,-0.64Z" style="fill:rgb(64,37,105);fill-rule:nonzero;"/>
            </g>
            <g transform="matrix(60.5412,0,0,60.5412,1818.75,1642.39)">
                <path d="M0.238,-0.076L0.238,-0.303L0.063,-0.574C0.048,-0.599 0.037,-0.618 0.031,-0.631C0.024,-0.645 0.021,-0.657 0.021,-0.667C0.021,-0.684 0.027,-0.698 0.04,-0.71C0.053,-0.722 0.069,-0.728 0.088,-0.728C0.108,-0.728 0.123,-0.722 0.133,-0.711C0.143,-0.7 0.159,-0.678 0.179,-0.644L0.313,-0.427L0.448,-0.644C0.456,-0.657 0.463,-0.669 0.469,-0.678C0.474,-0.687 0.48,-0.695 0.487,-0.703C0.494,-0.711 0.501,-0.717 0.509,-0.722C0.517,-0.726 0.527,-0.728 0.539,-0.728C0.557,-0.728 0.573,-0.722 0.585,-0.71C0.597,-0.698 0.603,-0.685 0.603,-0.669C0.603,-0.656 0.6,-0.644 0.594,-0.631C0.588,-0.618 0.577,-0.601 0.562,-0.578L0.383,-0.303L0.383,-0.076C0.383,-0.047 0.376,-0.024 0.362,-0.01C0.349,0.005 0.331,0.012 0.31,0.012C0.289,0.012 0.271,0.005 0.258,-0.01C0.244,-0.024 0.238,-0.046 0.238,-0.076Z" style="fill:rgb(64,37,105);fill-rule:nonzero;"/>
            </g>
            <g transform="matrix(60.5412,0,0,60.5412,1871.73,1642.39)">
                <path d="M0.622,-0.215C0.622,-0.172 0.611,-0.133 0.589,-0.098C0.566,-0.064 0.534,-0.037 0.491,-0.017C0.448,0.002 0.397,0.012 0.338,0.012C0.267,0.012 0.209,-0.001 0.163,-0.028C0.131,-0.047 0.104,-0.073 0.084,-0.105C0.063,-0.137 0.053,-0.168 0.053,-0.198C0.053,-0.216 0.059,-0.231 0.072,-0.243C0.084,-0.256 0.099,-0.262 0.118,-0.262C0.133,-0.262 0.146,-0.257 0.157,-0.248C0.168,-0.238 0.177,-0.223 0.184,-0.204C0.193,-0.181 0.203,-0.162 0.214,-0.147C0.224,-0.132 0.239,-0.119 0.258,-0.109C0.278,-0.099 0.303,-0.094 0.334,-0.094C0.377,-0.094 0.412,-0.104 0.439,-0.124C0.466,-0.144 0.479,-0.169 0.479,-0.199C0.479,-0.223 0.472,-0.242 0.457,-0.257C0.443,-0.272 0.424,-0.283 0.401,-0.291C0.378,-0.299 0.347,-0.307 0.309,-0.316C0.258,-0.328 0.215,-0.342 0.18,-0.358C0.145,-0.374 0.118,-0.396 0.097,-0.424C0.077,-0.452 0.067,-0.486 0.067,-0.528C0.067,-0.567 0.078,-0.602 0.099,-0.633C0.121,-0.663 0.152,-0.687 0.192,-0.703C0.233,-0.72 0.281,-0.728 0.336,-0.728C0.38,-0.728 0.418,-0.723 0.45,-0.712C0.482,-0.701 0.509,-0.686 0.53,-0.668C0.551,-0.65 0.566,-0.631 0.576,-0.611C0.586,-0.591 0.591,-0.572 0.591,-0.553C0.591,-0.536 0.585,-0.52 0.573,-0.507C0.56,-0.493 0.545,-0.486 0.527,-0.486C0.51,-0.486 0.498,-0.49 0.489,-0.498C0.48,-0.507 0.471,-0.52 0.461,-0.539C0.448,-0.566 0.432,-0.587 0.414,-0.602C0.396,-0.617 0.367,-0.625 0.326,-0.625C0.289,-0.625 0.259,-0.617 0.236,-0.6C0.213,-0.584 0.201,-0.564 0.201,-0.541C0.201,-0.527 0.205,-0.514 0.213,-0.504C0.221,-0.493 0.231,-0.485 0.245,-0.477C0.259,-0.47 0.273,-0.464 0.287,-0.459C0.301,-0.455 0.324,-0.449 0.356,-0.441C0.396,-0.431 0.433,-0.421 0.466,-0.41C0.498,-0.398 0.526,-0.384 0.549,-0.368C0.572,-0.352 0.59,-0.331 0.603,-0.306C0.616,-0.281 0.622,-0.251 0.622,-0.215Z" style="fill:rgb(64,37,105);fill-rule:nonzero;"/>
            </g>
            <g transform="matrix(60.5412,0,0,60.5412,1912.11,1642.39)">
                <path d="M0.55,-0.604L0.223,-0.604L0.223,-0.428L0.524,-0.428C0.546,-0.428 0.563,-0.423 0.573,-0.413C0.584,-0.403 0.59,-0.39 0.59,-0.374C0.59,-0.358 0.584,-0.344 0.574,-0.334C0.563,-0.324 0.546,-0.319 0.524,-0.319L0.223,-0.319L0.223,-0.115L0.561,-0.115C0.584,-0.115 0.601,-0.11 0.613,-0.099C0.624,-0.089 0.63,-0.075 0.63,-0.057C0.63,-0.04 0.624,-0.026 0.613,-0.016C0.601,-0.005 0.584,-0 0.561,-0L0.167,-0C0.135,-0 0.113,-0.007 0.099,-0.021C0.085,-0.035 0.078,-0.058 0.078,-0.089L0.078,-0.627C0.078,-0.648 0.081,-0.665 0.087,-0.678C0.094,-0.691 0.103,-0.701 0.116,-0.707C0.13,-0.713 0.146,-0.716 0.167,-0.716L0.55,-0.716C0.573,-0.716 0.59,-0.711 0.601,-0.7C0.613,-0.69 0.618,-0.677 0.618,-0.66C0.618,-0.643 0.613,-0.63 0.601,-0.619C0.59,-0.609 0.573,-0.604 0.55,-0.604Z" style="fill:rgb(64,37,105);fill-rule:nonzero;"/>
            </g>
            <g transform="matrix(60.5412,0,0,60.5412,1952.49,1642.39)">
                <path d="M0.22,-0.64L0.22,-0.119L0.514,-0.119C0.538,-0.119 0.556,-0.113 0.568,-0.102C0.581,-0.091 0.587,-0.076 0.587,-0.059C0.587,-0.042 0.581,-0.027 0.568,-0.016C0.556,-0.005 0.538,-0 0.514,-0L0.164,-0C0.132,-0 0.11,-0.007 0.096,-0.021C0.082,-0.035 0.075,-0.058 0.075,-0.089L0.075,-0.64C0.075,-0.669 0.082,-0.691 0.095,-0.706C0.108,-0.721 0.125,-0.728 0.147,-0.728C0.169,-0.728 0.186,-0.721 0.2,-0.706C0.213,-0.692 0.22,-0.67 0.22,-0.64Z" style="fill:rgb(64,37,105);fill-rule:nonzero;"/>
            </g>
            <g transform="matrix(60.5412,0,0,60.5412,1989.05,1642.39)">
                <path d="M0.506,-0.604L0.22,-0.604L0.22,-0.421L0.459,-0.421C0.481,-0.421 0.498,-0.416 0.509,-0.406C0.519,-0.396 0.525,-0.383 0.525,-0.366C0.525,-0.35 0.519,-0.336 0.508,-0.327C0.497,-0.317 0.481,-0.312 0.459,-0.312L0.22,-0.312L0.22,-0.076C0.22,-0.046 0.213,-0.024 0.2,-0.01C0.186,0.005 0.169,0.012 0.148,0.012C0.126,0.012 0.109,0.005 0.095,-0.01C0.082,-0.024 0.075,-0.047 0.075,-0.076L0.075,-0.627C0.075,-0.648 0.078,-0.665 0.084,-0.678C0.091,-0.691 0.1,-0.701 0.114,-0.707C0.127,-0.713 0.144,-0.716 0.164,-0.716L0.506,-0.716C0.529,-0.716 0.546,-0.711 0.557,-0.7C0.569,-0.69 0.574,-0.677 0.574,-0.66C0.574,-0.643 0.569,-0.63 0.557,-0.619C0.546,-0.609 0.529,-0.604 0.506,-0.604Z" style="fill:rgb(64,37,105);fill-rule:nonzero;"/>
            </g>
        </g>
    </g>
    <defs>
        <linearGradient id="_Linear1" x1="0" y1="0" x2="1" y2="0" gradientUnits="userSpaceOnUse" gradientTransform="matrix(47.6,0,0,52.445,255.421,240.105)"><stop offset="0" style="stop-color:rgb(64,37,105);stop-opacity:1"/><stop offset="0.31" style="stop-color:rgb(64,37,105);stop-opacity:1"/><stop offset="0.43" style="stop-color:rgb(64,37,105);stop-opacity:1"/><stop offset="0.54" style="stop-color:rgb(64,37,105);stop-opacity:1"/><stop offset="0.97" style="stop-color:rgb(64,37,105);stop-opacity:0"/><stop offset="1" style="stop-color:rgb(64,37,105);stop-opacity:0"/></linearGradient>
    </defs>
</svg>
